<svg width="104" height="74" viewBox="0 0 104 74" fill="none" xmlns="http://www.w3.org/2000/svg">
<g clip-path="url(#clip0_24_2)">
<path d="M45.487 38.3523C42.2308 44.2121 35.6009 47 28.8971 47H2C30 43.5 49.5 29.5 52 10C54.5 29.5 74 43.5 102 47H75.1029C68.3991 47 61.7692 44.2121 58.513 38.3523C54.9886 32.01 52.7432 24.8334 52 17C51.2568 24.8334 49.0114 32.01 45.487 38.3523Z" fill="white"/>
<path d="M30.1051 36.2813C28.5344 37.1656 26.8822 37.9962 25.1522 38.7699C24.1695 35.3753 23.8079 31.8138 24.0963 28.266C24.4778 23.5725 25.9851 19.0476 28.4847 15.0923C30.9844 11.137 34.3991 7.87319 38.4265 5.59008C42.4539 3.30698 46.9697 2.07501 51.5738 2.00332C56.1779 1.93162 60.7282 3.02241 64.8217 5.17906C68.9152 7.3357 72.4255 10.4916 75.0416 14.3673C77.6578 18.243 79.2991 22.7188 79.8202 27.3982C80.2463 31.2257 79.9123 35.0929 78.8478 38.7699C77.1178 37.9962 75.4656 37.1655 73.8949 36.2812C74.5571 33.593 74.7427 30.7964 74.4342 28.0256C74.014 24.2521 72.6904 20.6428 70.5808 17.5175C68.4711 14.3922 65.6404 11.8472 62.3394 10.1081C59.0384 8.36897 55.369 7.48937 51.6563 7.54718C47.9435 7.60499 44.302 8.59845 41.0544 10.4395C37.8067 12.2806 35.053 14.9125 33.0373 18.1021C31.0216 21.2917 29.8061 24.9405 29.4985 28.7254C29.2917 31.2694 29.4993 33.8222 30.1051 36.2813Z" fill="white"/>
<path d="M4.57812 63.2422H1.49609L0.910156 65H-0.958984L2.2168 56.4688H3.8457L7.03906 65H5.16992L4.57812 63.2422ZM1.9707 61.8184H4.10352L3.03125 58.625L1.9707 61.8184ZM7.83594 65V56.4688H10.4609C11.2109 56.4688 11.8809 56.6387 12.4707 56.9785C13.0645 57.3145 13.5273 57.7949 13.8594 58.4199C14.1914 59.041 14.3574 59.748 14.3574 60.541V60.9336C14.3574 61.7266 14.1934 62.4316 13.8652 63.0488C13.541 63.666 13.082 64.1445 12.4883 64.4844C11.8945 64.8242 11.2246 64.9961 10.4785 65H7.83594ZM9.59375 57.8926V63.5879H10.4434C11.1309 63.5879 11.6562 63.3633 12.0195 62.9141C12.3828 62.4648 12.5684 61.8223 12.5762 60.9863V60.5352C12.5762 59.668 12.3965 59.0117 12.0371 58.5664C11.6777 58.1172 11.1523 57.8926 10.4609 57.8926H9.59375ZM18.6641 62.8848L20.5977 56.4688H22.5547L19.584 65H17.75L14.791 56.4688H16.7422L18.6641 62.8848ZM28.4961 61.3027H25.1211V63.5879H29.082V65H23.3633V56.4688H29.0703V57.8926H25.1211V59.9258H28.4961V61.3027ZM37.0508 65H35.293L31.8711 59.3867V65H30.1133V56.4688H31.8711L35.2988 62.0938V56.4688H37.0508V65ZM44.832 57.8926H42.2188V65H40.4609V57.8926H37.8828V56.4688H44.832V57.8926ZM52.2969 56.4688V62.0879C52.2969 63.0215 52.0039 63.7598 51.418 64.3027C50.8359 64.8457 50.0391 65.1172 49.0273 65.1172C48.0312 65.1172 47.2402 64.8535 46.6543 64.3262C46.0684 63.7988 45.7695 63.0742 45.7578 62.1523V56.4688H47.5156V62.0996C47.5156 62.6582 47.6484 63.0664 47.9141 63.3242C48.1836 63.5781 48.5547 63.7051 49.0273 63.7051C50.0156 63.7051 50.5176 63.1855 50.5332 62.1465V56.4688H52.2969ZM56.8965 61.877H55.4961V65H53.7383V56.4688H56.9082C57.916 56.4688 58.6934 56.6934 59.2402 57.1426C59.7871 57.5918 60.0605 58.2266 60.0605 59.0469C60.0605 59.6289 59.9336 60.1152 59.6797 60.5059C59.4297 60.8926 59.0488 61.2012 58.5371 61.4316L60.3828 64.918V65H58.4961L56.8965 61.877ZM55.4961 60.4531H56.9141C57.3555 60.4531 57.6973 60.3418 57.9395 60.1191C58.1816 59.8926 58.3027 59.582 58.3027 59.1875C58.3027 58.7852 58.1875 58.4688 57.957 58.2383C57.7305 58.0078 57.3809 57.8926 56.9082 57.8926H55.4961V60.4531ZM66.5352 61.3027H63.1602V63.5879H67.1211V65H61.4023V56.4688H67.1094V57.8926H63.1602V59.9258H66.5352V61.3027ZM77.8906 63.9219C77.5742 64.3008 77.127 64.5957 76.5488 64.8066C75.9707 65.0137 75.3301 65.1172 74.627 65.1172C73.8887 65.1172 73.2402 64.957 72.6816 64.6367C72.127 64.3125 71.6973 63.8438 71.3926 63.2305C71.0918 62.6172 70.9375 61.8965 70.9297 61.0684V60.4883C70.9297 59.6367 71.0723 58.9004 71.3574 58.2793C71.6465 57.6543 72.0605 57.1777 72.5996 56.8496C73.1426 56.5176 73.7773 56.3516 74.5039 56.3516C75.5156 56.3516 76.3066 56.5938 76.877 57.0781C77.4473 57.5586 77.7852 58.2598 77.8906 59.1816H76.1797C76.1016 58.6934 75.9277 58.3359 75.6582 58.1094C75.3926 57.8828 75.0254 57.7695 74.5566 57.7695C73.959 57.7695 73.5039 57.9941 73.1914 58.4434C72.8789 58.8926 72.7207 59.5605 72.7168 60.4473V60.9922C72.7168 61.8867 72.8867 62.5625 73.2266 63.0195C73.5664 63.4766 74.0645 63.7051 74.7207 63.7051C75.3809 63.7051 75.8516 63.5645 76.1328 63.2832V61.8125H74.5332V60.5176H77.8906V63.9219ZM85.7773 56.4688V62.0879C85.7773 63.0215 85.4844 63.7598 84.8984 64.3027C84.3164 64.8457 83.5195 65.1172 82.5078 65.1172C81.5117 65.1172 80.7207 64.8535 80.1348 64.3262C79.5488 63.7988 79.25 63.0742 79.2383 62.1523V56.4688H80.9961V62.0996C80.9961 62.6582 81.1289 63.0664 81.3945 63.3242C81.6641 63.5781 82.0352 63.7051 82.5078 63.7051C83.4961 63.7051 83.998 63.1855 84.0137 62.1465V56.4688H85.7773ZM89.0879 65H87.3301V56.4688H89.0879V65ZM92.4805 63.5879H96.2129V65H90.7227V56.4688H92.4805V63.5879ZM97.2266 65V56.4688H99.8516C100.602 56.4688 101.271 56.6387 101.861 56.9785C102.455 57.3145 102.918 57.7949 103.25 58.4199C103.582 59.041 103.748 59.748 103.748 60.541V60.9336C103.748 61.7266 103.584 62.4316 103.256 63.0488C102.932 63.666 102.473 64.1445 101.879 64.4844C101.285 64.8242 100.615 64.9961 99.8691 65H97.2266ZM98.9844 57.8926V63.5879H99.834C100.521 63.5879 101.047 63.3633 101.41 62.9141C101.773 62.4648 101.959 61.8223 101.967 60.9863V60.5352C101.967 59.668 101.787 59.0117 101.428 58.5664C101.068 58.1172 100.543 57.8926 99.8516 57.8926H98.9844Z" fill="white"/>
</g>
<defs>
<clipPath id="clip0_24_2">
<rect width="104" height="74" fill="white"/>
</clipPath>
</defs>
</svg>
